<?xml version="1.0" standalone="no"?>
<!DOCTYPE svg PUBLIC "-//W3C//DTD SVG 20010904//EN"
 "http://www.w3.org/TR/2001/REC-SVG-20010904/DTD/svg10.dtd">
<svg version="1.0" xmlns="http://www.w3.org/2000/svg"
 width="1280.000000pt" height="640.000000pt" viewBox="0 0 1280.000000 640.000000"
 preserveAspectRatio="xMidYMid meet">
<g transform="translate(0.000000,640.000000) scale(0.100000,-0.100000)"
fill="#000000" stroke="none">
<path d="M2659 4285 c-58 -18 -113 -78 -130 -137 -14 -55 -5 -155 19 -212 19
-41 47 -69 172 -168 63 -51 178 -196 221 -282 17 -32 35 -85 41 -117 13 -76
38 -109 83 -109 40 0 65 29 97 117 32 84 31 280 -1 410 -34 140 -125 317 -205
398 -97 99 -196 132 -297 100z"/>
<path d="M9270 4259 c-161 -32 -357 -216 -470 -444 -78 -155 -94 -219 -88
-355 5 -111 14 -140 53 -166 22 -14 27 -14 58 1 25 12 44 34 73 87 22 40 61
90 90 117 83 76 228 167 312 196 42 15 97 34 121 42 60 21 112 71 146 140 24
49 29 70 29 138 1 67 -3 87 -23 123 -32 55 -111 109 -180 122 -60 11 -59 11
-121 -1z"/>
<path d="M4166 4085 c-291 -74 -448 -392 -319 -648 66 -133 195 -197 398 -197
252 -1 425 -91 512 -268 36 -73 38 -80 38 -176 0 -92 -3 -107 -31 -167 -67
-141 -182 -216 -427 -279 -225 -57 -372 -81 -542 -87 -198 -7 -295 10 -539 91
-275 92 -330 100 -686 102 -236 1 -310 4 -370 18 -226 50 -337 109 -524 279
-309 283 -482 400 -691 469 -101 33 -274 33 -360 0 -143 -54 -215 -147 -223
-291 -5 -92 7 -138 51 -187 44 -52 95 -73 234 -100 138 -26 183 -47 207 -98
20 -43 20 -61 -3 -112 -35 -77 -127 -124 -245 -124 -85 0 -235 -24 -341 -55
-143 -42 -305 -128 -282 -151 3 -4 2865 -3 6359 1 l6353 8 -110 34 c-195 60
-275 93 -555 229 -406 197 -533 237 -742 235 -127 -1 -214 -19 -356 -72 -146
-56 -210 -50 -279 22 -63 67 -73 164 -24 241 41 65 105 94 277 124 255 44 333
74 406 152 56 60 84 133 99 259 28 237 -62 404 -279 516 -132 69 -218 89 -377
90 -108 0 -148 -4 -235 -26 -191 -47 -366 -129 -587 -276 -207 -137 -351 -255
-653 -536 -224 -209 -259 -239 -376 -326 -341 -253 -713 -399 -1082 -425 -74
-5 -118 -2 -179 10 -102 21 -144 39 -301 135 -210 127 -342 158 -627 148 -88
-3 -232 -15 -319 -26 -189 -25 -267 -26 -398 -6 -218 33 -386 120 -548 284
-110 112 -182 216 -350 503 -174 298 -246 404 -340 498 -85 84 -173 140 -270
172 -85 27 -278 34 -364 13z"/>
<path d="M8062 4043 c-50 -25 -127 -116 -169 -200 -36 -72 -38 -83 -38 -170 0
-70 4 -96 16 -108 23 -23 47 -9 74 45 32 63 123 143 210 184 74 36 98 63 110
127 9 48 -15 103 -54 123 -39 20 -107 20 -149 -1z"/>
<path d="M5653 4015 c-122 -61 -182 -204 -170 -398 13 -213 112 -461 231 -582
66 -67 148 -115 199 -115 70 0 87 81 37 178 -42 81 -51 137 -53 312 -2 130 2
172 21 263 21 92 22 114 12 155 -16 69 -64 148 -108 177 -58 38 -107 41 -169
10z"/>
<path d="M360 3979 c-60 -25 -100 -85 -100 -150 0 -56 31 -103 83 -127 36 -17
51 -19 102 -11 100 14 230 -13 291 -61 25 -20 47 -30 63 -28 24 3 26 6 26 58
-1 73 -26 122 -98 194 -80 78 -182 127 -275 132 -37 2 -78 -1 -92 -7z"/>
<path d="M12279 3937 c-72 -25 -163 -88 -203 -140 -29 -37 -56 -107 -56 -143
0 -31 29 -47 57 -31 79 46 108 57 164 64 35 5 93 4 128 -1 51 -7 70 -5 97 8
66 31 94 123 58 185 -44 75 -136 97 -245 58z"/>
<path d="M1564 3917 c-86 -42 -120 -106 -112 -211 6 -64 40 -147 74 -178 11
-9 55 -34 99 -56 164 -81 313 -222 360 -340 33 -82 50 -102 86 -102 34 0 64
35 81 94 17 60 14 201 -5 274 -57 214 -204 429 -346 506 -77 41 -167 46 -237
13z"/>
<path d="M6938 3730 c-206 -37 -444 -188 -552 -352 -44 -66 -77 -155 -83 -228
-4 -47 -2 -59 18 -84 32 -40 78 -32 155 27 67 51 114 69 240 91 111 20 195 20
304 1 124 -23 166 -10 246 69 70 71 89 120 82 216 -4 50 -11 70 -44 117 -79
116 -217 170 -366 143z"/>
<path d="M11935 3196 c-43 -18 -146 -134 -177 -198 -41 -85 -44 -113 -14 -143
20 -20 35 -25 73 -25 107 0 273 64 314 121 35 50 39 142 7 189 -42 63 -131 88
-203 56z"/>
<path d="M7938 3134 c-127 -39 -328 -315 -328 -452 0 -79 20 -96 119 -100 64
-3 98 1 170 22 180 51 278 113 320 200 28 57 29 162 1 215 -26 53 -92 107
-145 120 -55 14 -79 13 -137 -5z"/>
<path d="M2518 3094 c-36 -19 -48 -43 -48 -94 0 -73 24 -107 103 -147 85 -42
172 -122 201 -183 23 -50 58 -65 74 -33 59 111 -33 355 -167 444 -51 33 -117
39 -163 13z"/>
<path d="M3727 3056 c-61 -22 -107 -65 -134 -124 -51 -110 -13 -240 91 -309
97 -66 344 -123 446 -103 56 10 90 47 90 96 0 124 -216 401 -341 438 -63 19
-102 20 -152 2z"/>
<path d="M12407 2742 c-60 -22 -114 -64 -134 -108 -24 -49 -8 -62 51 -46 52
14 130 3 200 -29 52 -23 84 -18 117 17 29 31 30 84 3 121 -45 61 -141 80 -237
45z"/>
<path d="M195 2681 c-37 -16 -60 -51 -60 -93 0 -32 7 -45 32 -68 46 -42 161
-71 207 -54 19 7 21 55 5 87 -24 46 -84 110 -115 123 -38 16 -41 16 -69 5z"/>
</g>
</svg>
