<?xml version="1.0" encoding="UTF-8"?> <svg xmlns="http://www.w3.org/2000/svg" width="512" height="512" viewBox="0 0 512 512" fill="none"> <g clip-path="url(#clip0_406_118)"> <path d="M3.07119 77.808C5.80136 66.4443 19.9573 62.413 28.2628 70.7196L83.5224 126.009H125.975V83.5564L70.7886 28.3988C62.522 20.1323 66.5063 5.99139 77.813 3.22221C103.909 -3.1682 146.251 -2.21414 178.989 30.512C207.63 59.1538 216.831 101.907 203.37 139.759L372.241 308.63C410.093 295.169 452.846 304.37 481.488 333.011C513.391 364.915 515.27 407.695 508.897 434.226C506.167 445.59 492.011 449.621 483.705 441.314L428.446 386.025H385.993V428.478L441.165 483.62C449.434 491.889 445.446 506.033 434.136 508.798C408.051 515.176 365.724 514.254 332.98 481.521C304.339 452.879 295.138 410.126 308.599 372.274L139.728 203.403C101.876 216.864 59.1328 207.663 30.481 179.022C-1.4231 147.119 -3.30222 104.339 3.07119 77.808V77.808Z" fill="url(#paint0_linear_406_118)"></path> <path d="M255.985 362.094L128.006 490.063C102.395 515.674 62.712 518.864 33.6102 499.603L149.228 383.996C155.078 378.135 155.078 368.635 149.228 362.774C143.367 356.924 133.867 356.924 128.006 362.774L12.3988 478.392C-6.86245 449.29 -3.68225 409.607 21.9394 383.996L149.908 256.018L255.985 362.094Z" fill="url(#paint1_linear_406_118)"></path> <path d="M510.421 42.9238L467.988 127.779C465.788 132.19 461.568 135.23 456.687 135.93L387.393 145.82L319.629 213.585L298.417 192.373L366.172 124.619L376.072 55.3146C376.772 50.4342 379.812 46.214 384.223 44.0138L469.078 1.5811C474.849 -1.29909 481.829 -0.169018 486.389 4.39128L507.611 25.6126C512.171 30.1729 513.301 37.1534 510.421 42.9238V42.9238Z" fill="url(#paint2_linear_406_118)"></path> </g> <defs> <linearGradient id="paint0_linear_406_118" x1="0.136361" y1="256.01" x2="511.832" y2="256.01" gradientUnits="userSpaceOnUse"> <stop stop-color="#7B2CBF"></stop> <stop offset="1" stop-color="#A42DDC"></stop> </linearGradient> <linearGradient id="paint1_linear_406_118" x1="8.1062e-06" y1="384.008" x2="255.985" y2="384.008" gradientUnits="userSpaceOnUse"> <stop stop-color="#7B2CBF"></stop> <stop offset="1" stop-color="#A42DDC"></stop> </linearGradient> <linearGradient id="paint2_linear_406_118" x1="298.417" y1="106.793" x2="512" y2="106.793" gradientUnits="userSpaceOnUse"> <stop stop-color="#7B2CBF"></stop> <stop offset="1" stop-color="#A42DDC"></stop> </linearGradient> <clipPath id="clip0_406_118"> <rect width="512" height="512" fill="white"></rect> </clipPath> </defs> </svg> 