<?xml version="1.0" encoding="UTF-8"?> <svg xmlns="http://www.w3.org/2000/svg" width="512" height="512" viewBox="0 0 512 512" fill="none"> <g clip-path="url(#clip0_406_133)"> <path d="M112.888 429.278C92.207 429.278 75.382 412.454 75.382 391.773C75.382 371.092 92.207 354.268 112.888 354.268H256.423C293.646 354.268 323.929 323.985 323.929 286.762C323.929 249.539 293.646 219.257 256.423 219.257H155.197V249.257H256.423C277.104 249.257 293.929 266.082 293.929 286.763C293.929 307.444 277.104 324.268 256.423 324.268H112.888C75.665 324.268 45.382 354.551 45.382 391.773C45.382 428.995 75.665 459.278 112.888 459.278H356.803V429.278H112.888Z" fill="url(#paint0_linear_406_133)"></path> <path d="M138.971 76.566C107.179 44.774 55.635 44.774 23.844 76.566C-7.948 108.358 -7.948 159.902 23.844 191.693L81.408 249.257L138.971 191.693C170.763 159.901 170.763 108.357 138.971 76.566ZM80.926 158.762C66.957 158.762 55.633 147.438 55.633 133.469C55.633 119.5 66.957 108.175 80.926 108.175C94.895 108.175 106.22 119.499 106.22 133.469C106.22 147.438 94.896 158.762 80.926 158.762Z" fill="url(#paint1_linear_406_133)"></path> <path d="M488.156 286.587C456.364 254.795 404.82 254.795 373.029 286.587C341.237 318.379 341.237 369.923 373.029 401.714L430.593 459.278L488.157 401.714C519.948 369.923 519.948 318.379 488.156 286.587ZM430.111 368.784C416.142 368.784 404.818 357.46 404.818 343.491C404.818 329.522 416.142 318.197 430.111 318.197C444.08 318.197 455.405 329.521 455.405 343.491C455.405 357.46 444.081 368.784 430.111 368.784Z" fill="url(#paint2_linear_406_133)"></path> </g> <defs> <linearGradient id="paint0_linear_406_133" x1="45.382" y1="339.268" x2="356.803" y2="339.268" gradientUnits="userSpaceOnUse"> <stop stop-color="#7B2CBF"></stop> <stop offset="1" stop-color="#A42DDC"></stop> </linearGradient> <linearGradient id="paint1_linear_406_133" x1="3.03266e-07" y1="150.99" x2="162.815" y2="150.99" gradientUnits="userSpaceOnUse"> <stop stop-color="#7B2CBF"></stop> <stop offset="1" stop-color="#A42DDC"></stop> </linearGradient> <linearGradient id="paint2_linear_406_133" x1="349.185" y1="361.011" x2="512" y2="361.011" gradientUnits="userSpaceOnUse"> <stop stop-color="#7B2CBF"></stop> <stop offset="1" stop-color="#A42DDC"></stop> </linearGradient> <clipPath id="clip0_406_133"> <rect width="512" height="512" fill="white"></rect> </clipPath> </defs> </svg> 