<?xml version="1.0" encoding="UTF-8"?> <svg xmlns="http://www.w3.org/2000/svg" width="32" height="32" viewBox="0 0 32 32" fill="none"> <path d="M27.7609 11.1998C27.7609 11.1998 27.5266 9.54512 26.8047 8.81855C25.8906 7.8623 24.8688 7.85762 24.4 7.80137C21.0438 7.55762 16.0047 7.55762 16.0047 7.55762H15.9953C15.9953 7.55762 10.9563 7.55762 7.6 7.80137C7.13125 7.85762 6.10938 7.8623 5.19531 8.81855C4.47344 9.54512 4.24375 11.1998 4.24375 11.1998C4.24375 11.1998 4 13.1451 4 15.0857V16.9045C4 18.8451 4.23906 20.7904 4.23906 20.7904C4.23906 20.7904 4.47344 22.4451 5.19062 23.1717C6.10469 24.1279 7.30469 24.0951 7.83906 24.1982C9.76094 24.3811 16 24.4373 16 24.4373C16 24.4373 21.0438 24.4279 24.4 24.1889C24.8688 24.1326 25.8906 24.1279 26.8047 23.1717C27.5266 22.4451 27.7609 20.7904 27.7609 20.7904C27.7609 20.7904 28 18.8498 28 16.9045V15.0857C28 13.1451 27.7609 11.1998 27.7609 11.1998ZM13.5203 19.1123V12.367L20.0031 15.7514L13.5203 19.1123Z" fill="#F6F5FA"></path> </svg> 